<?xml version="1.0" ?>
<!-- Uploaded to: SVG Repo, www.svgrepo.com, Generator: SVG Repo Mixer Tools -->
<svg width="800px" height="800px" viewBox="0 0 72 72" xmlns="http://www.w3.org/2000/svg">
<g fill="none" fill-rule="evenodd">
<path d="M36,72 L36,72 C55.882251,72 72,55.882251 72,36 L72,36 C72,16.117749 55.882251,-3.65231026e-15 36,0 L36,0 C16.117749,3.65231026e-15 -2.4348735e-15,16.117749 0,36 L0,36 C2.4348735e-15,55.882251 16.117749,72 36,72 Z" fill="#0075BC"/>
<path d="M37.6507155,27.9539388 C37.6507155,29.1407775 37.9027155,29.1396162 38.4740704,29.9769065 C40.9743284,33.6291646 40.9720059,38.0687775 38.8456833,41.9033582 C38.348651,42.798713 37.6530381,43.3851646 37.5961349,44.1074872 C37.5589736,44.5824549 37.7877478,45.0527775 38.0513607,45.3686485 C39.0059413,46.5183259 40.5341994,46.0781969 41.5723929,44.4198743 C42.9589736,42.2018098 44.15278,38.8131646 44.0761349,36.182842 L43.6824575,32.9904549 C43.2551026,31.1207775 42.53278,29.5332936 41.5096833,27.9957452 C39.6016833,25.1250356 37.6507155,26.9958743 37.6507155,27.9539388 M27.5312317,43.9774227 C27.5312317,45.470842 29.7678768,46.6054227 30.9012962,44.6056807 C31.2880059,43.9205194 33.4340704,40.4006485 33.4340704,39.7607775 C33.4340704,39.3647775 33.2598768,38.8874872 33.0787155,38.6401323 C32.5282639,37.8899388 31.0209091,37.6820678 30.1441349,39.1046485 C29.8108446,39.6434872 29.53678,40.1962614 29.2243929,40.7141969 C28.9398768,41.186842 27.5312317,43.510584 27.5312317,43.9774227 M29.6401349,30.4843904 C29.6401349,31.9696807 31.4842639,33.2552291 32.8871026,31.9394872 C34.208651,30.6980678 33.3539413,28.7807775 31.7049091,28.6553582 C30.6794897,28.5763904 29.6401349,29.4276162 29.6401349,30.4843904 M18.044651,39.0221969 C18.044651,34.9019388 17.6637478,30.2846485 19.1269736,26.6126485 C20.412522,23.3889065 23.3180704,20.4461969 26.5360059,19.1594872 C30.2985865,17.6544549 34.8067155,18.0458098 39.0210381,18.0458098 C47.4520059,18.0458098 53.6741994,23.6920033 53.6741994,32.6978098 L53.6741994,50.0904549 C53.6741994,52.4362614 52.4351026,53.6741969 50.0892962,53.6741969 L32.696651,53.6741969 C23.9602639,53.6741969 18.044651,47.7365194 18.044651,39.0221969" fill="#FFF"/>
</g>
</svg>